<svg xmlns="http://www.w3.org/2000/svg" viewBox="0 0 410 404"><defs><linearGradient id="a" x1="0" x2="1" y1="0" y2="1"><stop offset="0" stop-color="#41d1ff"/><stop offset="1" stop-color="#bd34fe"/></linearGradient><linearGradient id="b" x1="1" x2="0" y1="0" y2="1"><stop offset="0" stop-color="#ffea83"/><stop offset="0.083" stop-color="#ffdd35"/><stop offset="1" stop-color="#ffa800"/></linearGradient></defs><path fill="url(#a)" d="M399.641 59.524 215.571 388.541c-5.943 10.288-21.197 10.361-27.228.132L10.657 59.59c-6.18-10.518 1.846-23.641 13.742-22.222l179.487 21.322a16 16 0 0 0 11.185-2.597l139.6-98.863c9.987-7.067 23.438 2.415 20.19 13.89l-45.011 158.95a16 16 0 0 0 2.502 13.698l82.956 110.565c7.894 10.527-2.968 24.245-15.142 19.987l-103.01-36.158a16 16 0 0 0-11.31.313l-131.42 57.823c-11.1 4.887-22.944-7.298-17.225-18.268L295.83 78.083a16 16 0 0 0-10.225-23.575L171.68 34.361a16 16 0 0 1-11.315-8.261L120.942-32.05c-6.105-10.44 2.659-23.33 14.35-20.5l227.39 51.27c11.451 2.584 15.946 16.872 7.76 25.25l-136.312 141.79c-8.184 8.513-2.055 22.514 9.86 23.52l141.545 12.18c11.7 1.007 17.885 14.737 10.381 24.078Z"/><path fill="url(#b)" d="M242.623 138.64c-43.564-19.03-94.652-3.051-116.265 35.616-21.613 38.667-3.221 83.06 40.344 102.089 43.565 19.03 94.652 3.051 116.265-35.616 21.613-38.667 3.221-83.06-40.344-102.089Z"/></svg>
